<?xml version="1.0" encoding="UTF-8"?>
<svg id="Layer_1" xmlns="http://www.w3.org/2000/svg" version="1.1" viewBox="0 0 841.89 334.74">
  <!-- Generator: Adobe Illustrator 29.6.1, SVG Export Plug-In . SVG Version: 2.1.1 Build 9)  -->
  <defs>
    <style>
      .st0, .st1 {
        fill: #231f20;
      }

      .st1 {
        fill-rule: evenodd;
      }
    </style>
  </defs>
  <g>
    <path class="st0" d="M397.55,219.48v11.07c1.41-2.82,4.23-4.09,7.23-4.09,4.87,0,8.74,3.24,8.74,8.99s-3.84,8.99-8.71,8.99c-2.96,0-5.82-1.48-7.26-4.12v3.84h-1.69v-24.68h1.69ZM397.59,235.41c0,4.34,3.03,7.33,7.12,7.33s7.12-2.47,7.12-7.3-3.21-7.33-7.12-7.33-7.12,2.96-7.12,7.3Z"/>
    <path class="st0" d="M432,226.74l-11.07,25.84h-1.83l3.67-8.64-6.98-17.2h1.87l4.05,10.29,2.05,5.04,2.01-5.08,4.37-10.26h1.87Z"/>
    <path class="st0" d="M463.3,244.15h-18.23v-24.68h18.12v3.84h-14.17v6.66h13.61v3.67h-13.61v6.63h14.28v3.88Z"/>
    <path class="st0" d="M481.36,226.77h3.53v17.38h-3.45l-.18-2.82c-1.16,2.22-3.84,3.28-5.99,3.28-5.08.03-8.92-3.24-8.92-9.17s3.98-9.06,8.99-9.06c2.47,0,4.83,1.16,5.92,3.14l.11-2.75ZM469.97,235.45c0,3.6,2.54,5.78,5.64,5.78,7.51,0,7.51-11.53,0-11.53-3.1,0-5.64,2.19-5.64,5.75Z"/>
    <path class="st0" d="M493.2,226.77l.25,2.29c1.27-2.22,3.24-2.68,5.11-2.68,1.69,0,3.31.6,4.3,1.48l-1.66,3.17c-.88-.71-1.73-1.06-3.07-1.06-2.5,0-4.69,1.55-4.69,4.76v9.41h-3.63v-17.38h3.38Z"/>
    <path class="st0" d="M510.94,221.77v5.04h5.08v3.14h-5.11v8.28c0,1.83.81,2.86,2.5,2.86.71,0,1.52-.25,2.22-.6l1.06,3.1c-1.2.53-2.26.77-3.49.77-3.77.11-5.92-2.04-5.92-6.13v-8.28h-3.35v-3.14h3.35v-4.65l3.67-.39Z"/>
    <path class="st0" d="M523.31,219.48v9.87c1.52-2.11,3.56-2.82,5.64-2.82,4.9,0,7.16,3.28,7.16,8.25v9.38h-3.63v-9.34c0-3.28-1.69-4.9-4.37-4.9-2.82,0-4.79,2.33-4.79,5.18v9.06h-3.63v-24.68h3.63Z"/>
    <path class="st0" d="M554.16,236.58v7.58h-3.95v-24.68c3.77,0,7.65-.04,11.42-.04,11.77,0,11.81,17.06,0,17.13h-7.47ZM554.16,232.94h7.47c6.52,0,6.49-9.87,0-9.87h-7.47v9.87Z"/>
    <path class="st0" d="M577.15,226.77l.25,2.29c1.27-2.22,3.24-2.68,5.11-2.68,1.69,0,3.31.6,4.3,1.48l-1.66,3.17c-.88-.71-1.73-1.06-3.07-1.06-2.5,0-4.69,1.55-4.69,4.76v9.41h-3.63v-17.38h3.38Z"/>
    <path class="st0" d="M605.67,235.48c0,5.15-3.56,9.02-9.02,9.02s-8.95-3.88-8.95-9.02,3.56-9.06,8.95-9.06,9.02,3.95,9.02,9.06ZM591.32,235.48c0,3.1,2.01,5.64,5.32,5.64s5.36-2.54,5.36-5.64-2.19-5.71-5.36-5.71-5.32,2.64-5.32,5.71Z"/>
    <path class="st0" d="M614.84,221.77v5.04h5.08v3.14h-5.11v8.28c0,1.83.81,2.86,2.5,2.86.71,0,1.52-.25,2.22-.6l1.06,3.1c-1.2.53-2.26.77-3.49.77-3.77.11-5.92-2.04-5.92-6.13v-8.28h-3.35v-3.14h3.35v-4.65l3.67-.39Z"/>
    <path class="st0" d="M626.29,236.82c.32,2.64,2.5,4.37,5.68,4.37,1.76,0,3.98-.67,5.04-1.87l2.36,2.29c-1.8,1.97-4.79,2.96-7.47,2.96-5.71,0-9.38-3.63-9.38-9.2s3.7-9.06,9.13-9.06,9.41,3.42,8.74,10.51h-14.1ZM636.91,233.76c-.21-2.75-2.22-4.2-5.15-4.2-2.64,0-4.83,1.45-5.39,4.2h10.54Z"/>
    <path class="st0" d="M654.15,226.77h4.41v.11l-5.85,8.43,6.24,8.74v.11h-4.37l-4.27-6.31-4.27,6.31h-4.37v-.11l6.24-8.74-5.85-8.43v-.11h4.37l3.88,6.2,3.84-6.2Z"/>
    <path class="st0" d="M661.55,221.84v-2.36h9.7v2.36h-3.46v7.83h-2.71v-7.83h-3.53ZM675.93,219.48l3.31,4.23,3.38-4.23h2.61v10.22h-2.79l.11-6.1c-.95,1.2-2.08,2.54-3.03,3.77h-.6l-3-3.91.11,6.24h-2.75v-10.22h2.64Z"/>
  </g>
  <g>
    <g>
      <rect class="st0" x="178.58" y="139.94" width="12.48" height="79.03"/>
      <path class="st1" d="M176.82,189.92c-20.42-4.44-36.09-25.55-36.09-50.96,0-9.9,2.46-19.15,6.49-27.05,8.29-15.65,29.34-19.89,31.35-2.17,0,1.23,1.34,2.24,2.46,2.24h7.39c1.34,0,2.69-1.16,2.46-2.6-1.34-27.68-25.08-32.11-45.68-17.69-15.45,10.88-25.53,28.01-25.53,47.27,0,30.4,24.85,55.5,57.14,59.1v-8.14h0ZM192.81,198.07c32.11-3.58,57.2-28.69,57.2-59.1,0-26.51-19.03-48.97-45.23-56.65-1.79-.45-3.14.02-3.36,2.6v2.75c0,1.01.22,3.2,1.79,4.25l-.22-.18c15.23,8.13,25.98,26.22,25.98,47.23,0,25.43-15.7,46.56-36.15,50.97v8.13h0ZM202.31,91.38c.22.13.45.25.45.34l-.45-.34Z"/>
      <path class="st1" d="M184.85,125.41c-1.57,0-3.13,1.75-4.03,2.75l-14.56,14.6c-1.34,1.32-5.82,5.26-4.93,7.01,1.12,1.99,4.25,1.57,8.73.54,3.81-.78,8.51-1.99,13.88-2.62,12.09,1.34,22.17,5.67,24.18,2.08.9-1.75-3.36-5.69-4.7-7.01l-14.56-14.6c-1.12-1.01-2.46-2.75-4.03-2.75Z"/>
    </g>
    <g>
      <g>
        <path class="st0" d="M308.33,120.18h-24.26v-10.65h60.33v10.65h-24.15v63.18h-11.92v-63.18Z"/>
        <path class="st0" d="M349.88,161.42c.95,7.91,7.49,13.08,16.98,13.08,5.27,0,11.92-2,15.08-5.59l7.06,6.85c-5.38,5.91-14.34,8.86-22.36,8.86-17.09,0-28.06-10.86-28.06-27.53s11.08-27.11,27.32-27.11,28.16,10.23,26.16,31.43h-42.19ZM381.63,152.24c-.63-8.23-6.65-12.55-15.4-12.55-7.91,0-14.45,4.33-16.14,12.55h31.54Z"/>
        <path class="st0" d="M433.2,131.36h13.18v.32l-17.51,25.21,18.67,26.16v.32h-13.08l-12.76-18.88-12.76,18.88h-13.08v-.32l18.67-26.16-17.51-25.21v-.32h13.08l11.6,18.57,11.5-18.57Z"/>
        <path class="st0" d="M455.23,130.52c1.06-16.98,16.14-21.94,30.06-21.94s28.58,5.48,28.58,22.47c0,17.82-14.34,22.36-29.22,22.36-7.28,0-18.35,1.79-18.35,11.29v7.59h47.57v11.08h-58.96v-18.67c0-16.88,15.29-21.73,29.63-21.73,6.65,0,17.72-2.11,17.72-11.71s-8.02-12.13-16.98-12.44c-8.54,0-18.04,3.06-18.24,11.71h-11.82Z"/>
        <path class="st0" d="M546.03,120.18h-24.26v-10.65h60.33v10.65h-24.15v63.18h-11.92v-63.18Z"/>
        <path class="st0" d="M587.58,161.42c.95,7.91,7.49,13.08,16.98,13.08,5.27,0,11.92-2,15.08-5.59l7.06,6.85c-5.38,5.91-14.34,8.86-22.36,8.86-17.09,0-28.06-10.86-28.06-27.53s11.08-27.11,27.32-27.11,28.16,10.23,26.16,31.43h-42.19ZM619.33,152.24c-.63-8.23-6.65-12.55-15.4-12.55-7.91,0-14.45,4.33-16.14,12.55h31.54Z"/>
        <path class="st0" d="M670.9,131.36h13.18v.32l-17.51,25.21,18.67,26.16v.32h-13.08l-12.76-18.88-12.76,18.88h-13.08v-.32l18.67-26.16-17.51-25.21v-.32h13.08l11.6,18.57,11.5-18.57Z"/>
      </g>
      <path class="st0" d="M722.21,115.77c0,8.46-5.51,15.59-15.42,15.59s-15.42-7.13-15.42-15.59,5.55-15.59,15.42-15.59,15.42,7.09,15.42,15.59ZM694.61,115.68c0,7.09,4.4,12.73,12.17,12.73s12.22-5.64,12.22-12.69-4.44-12.73-12.22-12.73-12.17,5.64-12.17,12.77v-.09ZM709.74,117.65c6.11-1.03,5.47-10.12-1.49-10.12h-7.35v16.02h2.95v-5.55h2.78l4.44,5.55h3.25v-.6l-4.57-5.34v.04ZM708.24,110.3c3.63,0,3.59,5.17-.09,5.17h-4.31v-5.17h4.4Z"/>
    </g>
  </g>
</svg>